<mxfile host="65bd71144e">
    <diagram id="1cb8gx9KWQ5HcfXMuAdK" name="Big Picture">
        <mxGraphModel dx="1138" dy="718" grid="1" gridSize="10" guides="1" tooltips="1" connect="1" arrows="1" fold="1" page="1" pageScale="1" pageWidth="850" pageHeight="1100" math="0" shadow="0">
            <root>
                <mxCell id="0"/>
                <mxCell id="1" parent="0"/>
                <mxCell id="12" value="Pool" style="swimlane;childLayout=stackLayout;resizeParent=1;resizeParentMax=0;startSize=20;horizontal=0;horizontalStack=1;" vertex="1" parent="1">
                    <mxGeometry x="113" y="145" width="450" height="905" as="geometry"/>
                </mxCell>
                <mxCell id="_Pjy950ArvNA09z-UKuc-55" value="Form Model" style="swimlane;startSize=20;" vertex="1" parent="12">
                    <mxGeometry x="20" width="230" height="905" as="geometry"/>
                </mxCell>
                <mxCell id="_Pjy950ArvNA09z-UKuc-58" value="" style="edgeStyle=orthogonalEdgeStyle;rounded=0;orthogonalLoop=1;jettySize=auto;html=1;" edge="1" parent="_Pjy950ArvNA09z-UKuc-55" source="_Pjy950ArvNA09z-UKuc-56" target="_Pjy950ArvNA09z-UKuc-57">
                    <mxGeometry relative="1" as="geometry"/>
                </mxCell>
                <mxCell id="_Pjy950ArvNA09z-UKuc-56" value="User Input" style="ellipse;whiteSpace=wrap;html=1;" vertex="1" parent="_Pjy950ArvNA09z-UKuc-55">
                    <mxGeometry x="63" y="55" width="120" height="80" as="geometry"/>
                </mxCell>
                <mxCell id="_Pjy950ArvNA09z-UKuc-57" value="notify each form item" style="whiteSpace=wrap;html=1;" vertex="1" parent="_Pjy950ArvNA09z-UKuc-55">
                    <mxGeometry x="63" y="225" width="120" height="60" as="geometry"/>
                </mxCell>
                <mxCell id="_Pjy950ArvNA09z-UKuc-46" value="Form Item" style="swimlane;startSize=20;" vertex="1" parent="12">
                    <mxGeometry x="250" width="200" height="905" as="geometry"/>
                </mxCell>
                <mxCell id="Fsi2daNeb9qAt8IlJrkf-47" value="" style="edgeStyle=orthogonalEdgeStyle;rounded=0;orthogonalLoop=1;jettySize=auto;html=1;" edge="1" parent="_Pjy950ArvNA09z-UKuc-46" source="_Pjy950ArvNA09z-UKuc-59" target="Fsi2daNeb9qAt8IlJrkf-46">
                    <mxGeometry relative="1" as="geometry"/>
                </mxCell>
                <mxCell id="_Pjy950ArvNA09z-UKuc-59" value="if value changed, set value and notify subscribers" style="rounded=0;whiteSpace=wrap;html=1;" vertex="1" parent="_Pjy950ArvNA09z-UKuc-46">
                    <mxGeometry x="40" y="225" width="120" height="60" as="geometry"/>
                </mxCell>
                <mxCell id="LugzYPScA4Q684GvCMFQ-13" value="" style="edgeStyle=orthogonalEdgeStyle;rounded=0;orthogonalLoop=1;jettySize=auto;html=1;" edge="1" parent="_Pjy950ArvNA09z-UKuc-46" source="Fsi2daNeb9qAt8IlJrkf-46" target="LugzYPScA4Q684GvCMFQ-12">
                    <mxGeometry relative="1" as="geometry"/>
                </mxCell>
                <mxCell id="Fsi2daNeb9qAt8IlJrkf-46" value="subscriber receive notify and refresh dependency" style="rounded=0;whiteSpace=wrap;html=1;" vertex="1" parent="_Pjy950ArvNA09z-UKuc-46">
                    <mxGeometry x="40" y="365" width="120" height="60" as="geometry"/>
                </mxCell>
                <mxCell id="LugzYPScA4Q684GvCMFQ-12" value="End" style="ellipse;whiteSpace=wrap;html=1;rounded=0;" vertex="1" parent="_Pjy950ArvNA09z-UKuc-46">
                    <mxGeometry x="40" y="505" width="120" height="60" as="geometry"/>
                </mxCell>
                <mxCell id="_Pjy950ArvNA09z-UKuc-60" style="edgeStyle=orthogonalEdgeStyle;rounded=0;orthogonalLoop=1;jettySize=auto;html=1;entryX=0;entryY=0.5;entryDx=0;entryDy=0;" edge="1" parent="12" source="_Pjy950ArvNA09z-UKuc-57" target="_Pjy950ArvNA09z-UKuc-59">
                    <mxGeometry relative="1" as="geometry"/>
                </mxCell>
            </root>
        </mxGraphModel>
    </diagram>
    <diagram id="vZT2-aQayu_ICSU5vHxI" name="Refresh Dependency">
        <mxGraphModel dx="1138" dy="718" grid="1" gridSize="10" guides="1" tooltips="1" connect="1" arrows="1" fold="1" page="1" pageScale="1" pageWidth="850" pageHeight="1100" math="0" shadow="0">
            <root>
                <mxCell id="GX17dfNtHJd2HeJ_9vAZ-0"/>
                <mxCell id="GX17dfNtHJd2HeJ_9vAZ-1" parent="GX17dfNtHJd2HeJ_9vAZ-0"/>
                <mxCell id="y2fCRSWk-Exrl-mYToIG-4" value="" style="edgeStyle=orthogonalEdgeStyle;rounded=0;orthogonalLoop=1;jettySize=auto;html=1;" edge="1" parent="GX17dfNtHJd2HeJ_9vAZ-1" source="B0et0xnQKrWcDg4_yra2-0" target="y2fCRSWk-Exrl-mYToIG-3">
                    <mxGeometry relative="1" as="geometry"/>
                </mxCell>
                <mxCell id="B0et0xnQKrWcDg4_yra2-0" value="Check" style="ellipse;whiteSpace=wrap;html=1;" vertex="1" parent="GX17dfNtHJd2HeJ_9vAZ-1">
                    <mxGeometry x="380" y="80" width="120" height="80" as="geometry"/>
                </mxCell>
                <mxCell id="y2fCRSWk-Exrl-mYToIG-0" value="&lt;h1&gt;Heading&lt;/h1&gt;&lt;p&gt;Lorem ipsum dolor sit amet, consectetur adipisicing elit, sed do eiusmod tempor incididunt ut labore et dolore magna aliqua.&lt;/p&gt;" style="text;html=1;strokeColor=none;fillColor=none;spacing=5;spacingTop=-20;whiteSpace=wrap;overflow=hidden;rounded=0;" vertex="1" parent="GX17dfNtHJd2HeJ_9vAZ-1">
                    <mxGeometry x="40" y="40" width="190" height="120" as="geometry"/>
                </mxCell>
                <mxCell id="y2fCRSWk-Exrl-mYToIG-6" value="" style="edgeStyle=orthogonalEdgeStyle;rounded=0;orthogonalLoop=1;jettySize=auto;html=1;" edge="1" parent="GX17dfNtHJd2HeJ_9vAZ-1" source="y2fCRSWk-Exrl-mYToIG-3" target="y2fCRSWk-Exrl-mYToIG-5">
                    <mxGeometry relative="1" as="geometry"/>
                </mxCell>
                <mxCell id="y2fCRSWk-Exrl-mYToIG-8" value="" style="edgeStyle=orthogonalEdgeStyle;rounded=0;orthogonalLoop=1;jettySize=auto;html=1;" edge="1" parent="GX17dfNtHJd2HeJ_9vAZ-1" source="y2fCRSWk-Exrl-mYToIG-3" target="y2fCRSWk-Exrl-mYToIG-7">
                    <mxGeometry relative="1" as="geometry"/>
                </mxCell>
                <mxCell id="y2fCRSWk-Exrl-mYToIG-3" value="dependent type" style="rhombus;whiteSpace=wrap;html=1;" vertex="1" parent="GX17dfNtHJd2HeJ_9vAZ-1">
                    <mxGeometry x="380" y="240" width="120" height="80" as="geometry"/>
                </mxCell>
                <mxCell id="y2fCRSWk-Exrl-mYToIG-12" value="" style="edgeStyle=orthogonalEdgeStyle;rounded=0;orthogonalLoop=1;jettySize=auto;html=1;" edge="1" parent="GX17dfNtHJd2HeJ_9vAZ-1" source="y2fCRSWk-Exrl-mYToIG-5" target="y2fCRSWk-Exrl-mYToIG-11">
                    <mxGeometry relative="1" as="geometry"/>
                </mxCell>
                <mxCell id="y2fCRSWk-Exrl-mYToIG-5" value="include" style="whiteSpace=wrap;html=1;" vertex="1" parent="GX17dfNtHJd2HeJ_9vAZ-1">
                    <mxGeometry x="240" y="400" width="120" height="60" as="geometry"/>
                </mxCell>
                <mxCell id="y2fCRSWk-Exrl-mYToIG-23" value="" style="edgeStyle=orthogonalEdgeStyle;rounded=0;orthogonalLoop=1;jettySize=auto;html=1;" edge="1" parent="GX17dfNtHJd2HeJ_9vAZ-1" source="y2fCRSWk-Exrl-mYToIG-7" target="y2fCRSWk-Exrl-mYToIG-22">
                    <mxGeometry relative="1" as="geometry"/>
                </mxCell>
                <mxCell id="y2fCRSWk-Exrl-mYToIG-7" value="cascade" style="whiteSpace=wrap;html=1;" vertex="1" parent="GX17dfNtHJd2HeJ_9vAZ-1">
                    <mxGeometry x="520" y="400" width="120" height="60" as="geometry"/>
                </mxCell>
                <mxCell id="y2fCRSWk-Exrl-mYToIG-14" value="" style="edgeStyle=orthogonalEdgeStyle;rounded=0;orthogonalLoop=1;jettySize=auto;html=1;" edge="1" parent="GX17dfNtHJd2HeJ_9vAZ-1" source="y2fCRSWk-Exrl-mYToIG-11" target="y2fCRSWk-Exrl-mYToIG-13">
                    <mxGeometry relative="1" as="geometry"/>
                </mxCell>
                <mxCell id="y2fCRSWk-Exrl-mYToIG-17" value="true" style="edgeLabel;html=1;align=center;verticalAlign=middle;resizable=0;points=[];" vertex="1" connectable="0" parent="y2fCRSWk-Exrl-mYToIG-14">
                    <mxGeometry x="-0.2222" y="-2" relative="1" as="geometry">
                        <mxPoint as="offset"/>
                    </mxGeometry>
                </mxCell>
                <mxCell id="y2fCRSWk-Exrl-mYToIG-16" value="" style="edgeStyle=orthogonalEdgeStyle;rounded=0;orthogonalLoop=1;jettySize=auto;html=1;" edge="1" parent="GX17dfNtHJd2HeJ_9vAZ-1" source="y2fCRSWk-Exrl-mYToIG-11" target="y2fCRSWk-Exrl-mYToIG-15">
                    <mxGeometry relative="1" as="geometry"/>
                </mxCell>
                <mxCell id="y2fCRSWk-Exrl-mYToIG-18" value="false" style="edgeLabel;html=1;align=center;verticalAlign=middle;resizable=0;points=[];" vertex="1" connectable="0" parent="y2fCRSWk-Exrl-mYToIG-16">
                    <mxGeometry x="0.0667" relative="1" as="geometry">
                        <mxPoint as="offset"/>
                    </mxGeometry>
                </mxCell>
                <mxCell id="y2fCRSWk-Exrl-mYToIG-11" value="all dependent values meeted" style="rhombus;whiteSpace=wrap;html=1;" vertex="1" parent="GX17dfNtHJd2HeJ_9vAZ-1">
                    <mxGeometry x="260" y="530" width="80" height="80" as="geometry"/>
                </mxCell>
                <mxCell id="y2fCRSWk-Exrl-mYToIG-20" value="" style="edgeStyle=orthogonalEdgeStyle;rounded=0;orthogonalLoop=1;jettySize=auto;html=1;" edge="1" parent="GX17dfNtHJd2HeJ_9vAZ-1" source="y2fCRSWk-Exrl-mYToIG-13" target="y2fCRSWk-Exrl-mYToIG-19">
                    <mxGeometry relative="1" as="geometry"/>
                </mxCell>
                <mxCell id="y2fCRSWk-Exrl-mYToIG-13" value="visible" style="whiteSpace=wrap;html=1;" vertex="1" parent="GX17dfNtHJd2HeJ_9vAZ-1">
                    <mxGeometry x="240" y="700" width="120" height="60" as="geometry"/>
                </mxCell>
                <mxCell id="y2fCRSWk-Exrl-mYToIG-21" style="edgeStyle=orthogonalEdgeStyle;rounded=0;orthogonalLoop=1;jettySize=auto;html=1;entryX=0;entryY=0.5;entryDx=0;entryDy=0;" edge="1" parent="GX17dfNtHJd2HeJ_9vAZ-1" source="y2fCRSWk-Exrl-mYToIG-15" target="y2fCRSWk-Exrl-mYToIG-19">
                    <mxGeometry relative="1" as="geometry">
                        <Array as="points">
                            <mxPoint x="110" y="880"/>
                        </Array>
                    </mxGeometry>
                </mxCell>
                <mxCell id="y2fCRSWk-Exrl-mYToIG-15" value="invisible" style="whiteSpace=wrap;html=1;" vertex="1" parent="GX17dfNtHJd2HeJ_9vAZ-1">
                    <mxGeometry x="50" y="540" width="120" height="60" as="geometry"/>
                </mxCell>
                <mxCell id="y2fCRSWk-Exrl-mYToIG-19" value="End" style="ellipse;whiteSpace=wrap;html=1;" vertex="1" parent="GX17dfNtHJd2HeJ_9vAZ-1">
                    <mxGeometry x="380" y="850" width="120" height="60" as="geometry"/>
                </mxCell>
                <mxCell id="y2fCRSWk-Exrl-mYToIG-24" style="edgeStyle=orthogonalEdgeStyle;rounded=0;orthogonalLoop=1;jettySize=auto;html=1;entryX=1;entryY=0.5;entryDx=0;entryDy=0;" edge="1" parent="GX17dfNtHJd2HeJ_9vAZ-1" source="y2fCRSWk-Exrl-mYToIG-22" target="y2fCRSWk-Exrl-mYToIG-19">
                    <mxGeometry relative="1" as="geometry">
                        <Array as="points">
                            <mxPoint x="580" y="880"/>
                        </Array>
                    </mxGeometry>
                </mxCell>
                <mxCell id="y2fCRSWk-Exrl-mYToIG-22" value="Reload" style="whiteSpace=wrap;html=1;" vertex="1" parent="GX17dfNtHJd2HeJ_9vAZ-1">
                    <mxGeometry x="520" y="540" width="120" height="60" as="geometry"/>
                </mxCell>
            </root>
        </mxGraphModel>
    </diagram>
</mxfile>